<svg id="Layer_1" data-name="Layer 1" xmlns="http://www.w3.org/2000/svg" viewBox="0 0 382.3 292.24"><defs><style>.cls-1{fill:#060606;}.cls-2{fill:#f99051;}</style></defs><path class="cls-1" d="M70.41,93.64c9-40.3,33.3-67.2,70.5-81.7,41.3-16.1,83.1-15.9,124.6.5,5,2,7.2,4.9,7.7,10.2,1.1,13.3,2.8,26.5,4,39.7.2,1.8,1.8,4.8-1.4,5.5s-2.9-2.5-3.5-4.3c-5.7-17-13.8-32.5-28.6-43.5-17.5-13-37.6-15.3-58.4-12.9-46.5,5.2-75.9,38-83.9,82.2-.6,3.2-1.4,4.5-4.9,4.4C88.11,93.44,79.61,93.64,70.41,93.64Z"/><path class="cls-1" d="M74.91,156.34c9.2,0,18.1.2,26.9-.1,2.9-.1,3.9,1.1,4.8,3.6,8.3,22.3,21.4,40.9,41.5,54,24.5,16,51,20,79.1,11.7,21-6.2,33.7-21.6,43-40.4,2-4,3.5-8.2,5.3-12.4.6-1.3.8-3,3-2.5s1.8,2,1.6,3.5c-1.2,12.9-2.5,25.8-3.6,38.8-.3,3.7-1.6,6.5-5.3,8.2-46.5,20.3-93.2,21.4-139.4-.1-26.5-12.4-45-33.1-55.9-60.4a22.5,22.5,0,0,1-.8-2.4A8.81,8.81,0,0,1,74.91,156.34Z"/><path class="cls-2" d="M198.51,115.74v52.9a8.24,8.24,0,0,1-4.8,8c-3,1.6-5.5.3-7.9-1.2s-2.8-4-2.8-6.6v-37q0-34.5.1-68.9c0-7.2,4.9-10.7,11-8.3,3.9,1.5,4.4,4.6,4.4,8.1v53Z"/><path class="cls-2" d="M222.11,116v33a8.41,8.41,0,0,1-8.6,8.8c-4.1-.1-7.2-3.6-7.2-8.5V81.84c0-5.6,3-8.5,8.2-8.3,4.8.1,7.5,3.2,7.5,8.5.1,11.3.1,22.7.1,34Z"/><path class="cls-2" d="M159.61,115.44V83c0-6.3,2.5-9.3,7.7-9.5,5-.2,8.1,3,8.1,9.2.1,21.9.1,43.9,0,65.8,0,5.7-3.3,9.1-8.3,9.1-4.5,0-7.5-3.5-7.5-9.2C159.51,137.44,159.61,126.44,159.61,115.44Z"/><path class="cls-2" d="M152.31,115.64c0,3.8.1,7.7,0,11.5-.2,5-3.6,8.3-8.2,8.1-4.4-.1-7.5-3.3-7.6-8.2-.1-7.8-.2-15.6,0-23.5a7.73,7.73,0,0,1,7.9-7.9c4.2,0,7.3,2.9,7.9,7.5,0,.3.1.7.1,1-.1,3.9-.1,7.7-.1,11.5Z"/><path class="cls-2" d="M229.41,115.34c0-3.8-.1-7.6,0-11.4.2-4.8,3.4-8,7.7-8.1a8.2,8.2,0,0,1,8.1,7.8c.2,8,.2,15.9,0,23.9a7.79,7.79,0,0,1-8,7.8c-4.2,0-7.6-3.4-7.8-8C229.21,123.24,229.41,119.34,229.41,115.34Z"/><path class="cls-2" d="M216.21,264.64h9a6.34,6.34,0,0,1,4.6,1.6c1.1,1.1,2.9,2.4,1.6,4.2-1,1.5-2.5.6-4,0-6.7-2.6-13.8-.8-20.7-1.1-1.6-.1-2.3,1.3-2.1,2.8.3,1.9,1,3.5,3.4,3.4,5.2-.1,10.3-.1,15.5-.1,5.6,0,8.4,2.4,8.6,7.4.2,5.4-2.3,8.1-8.2,8.3-5.5.2-11,.1-16.5,0a8.19,8.19,0,0,1-3.8-.9c-1.8-1-3.8-2.5-2.7-4.7,1.1-2,3-.6,4.8,0,6.6,2.1,13.4,1.1,20.1.2,1.7-.2,1.6-1.9,1.5-3.2a2.29,2.29,0,0,0-2.6-2.3l-15.9-.3c-6.9-.2-8.9-2.5-8.5-9.2.3-3.9,2.3-6.1,6.3-6.2,3.3,0,6.5.1,9.6.1Z"/><path class="cls-2" d="M363.61,291.24a53.25,53.25,0,0,0-8,.1c-4.7.7-5.7-1.7-5.6-5.6.2-6,.4-12,.3-17.9,0-2.6,1-3.6,3.5-3.6,7.3.1,14.6,0,21.9.1,5,.1,5.6,4.3,6.2,7.6.7,3.7.3,7.6.1,11.4a8.21,8.21,0,0,1-8,7.9c-3.4.1-6.9,0-10.4,0Zm2.1-22c-10.7-.1-10.7-.1-10.6,10.7,0,1,.1,2,0,3-.2,2.5.7,3.7,3.4,3.7,4.6,0,9.3.1,14,.1,3.3-.1,5.3-1.8,5.2-5.3-.2-13,1.1-12.5-11.5-12.2Z"/><path class="cls-2" d="M316.31,292.24c-3.8-.7-4.8-2.2-4.7-5.1.2-6.5.2-13,.2-19.5,0-1.3-.3-2.8,1.4-3.4,1.5-.6,2.4.5,3.4,1.4,6,5,12.1,9.8,18.1,14.8.9.7,1.7,1.8,3,1.2s1-1.9,1-3.1c0-3.5,0-7,.1-10.5,0-1.7-.6-4,2.3-4.1,2.7-.1,2.2,2.1,2.3,3.6.2,7,.2,14,.3,20.9,0,1,.1,2.2-1.2,2.5-1.5.4-2.8-.2-4.1-1.2-6.1-5.1-12.3-10-18.5-15-.9-.7-1.6-2-2.9-1.4s-.7,2.1-.7,3.2Z"/><path class="cls-2" d="M253.41,291.34c-15-.1-18.4-4.3-15.8-19.1.9-5.3,3.3-7.5,8.8-7.6,4.6-.1,9.3-.1,14,.1,5.2.1,8.5,3.6,8.6,8.9.1,2.8.2,5.6.1,8.5-.2,6.5-3,9.2-9.6,9.3C257.31,291.34,255.31,291.34,253.41,291.34Zm-.3-4.6c1.7,0,3.3-.1,5,0,4.4.3,6.6-1.5,6.4-6-.1-1.5.1-3,.1-4.5-.2-6.4-.7-6.9-7.3-7-3,0-6,.2-9-.1-4.4-.3-6.2,1.2-6.3,5.9C241.81,286.64,241.61,286.64,253.11,286.74Z"/><path class="cls-1" d="M76.61,276.74c.4-3.4-1.8-8.7.8-11.3s7.9-.6,12-.8c3.2-.2,6.3,0,9.5,0,7.2,0,10.1,2.2,9.1,9-.7,4.8.4,9.3.2,13.9,0,1.5.7,3.4-2.2,3.5s-2.5-1.8-2.2-3.4c.8-5.2-1.5-6.8-6.4-6.2a67.59,67.59,0,0,1-9,.1c-6.9,0-7,0-7.6,7-.1,1.5-.3,2.5-2.1,2.5s-2.1-.9-2.1-2.5Zm15.2.6c2.8,0,5.6-.1,8.4,0,3,.1,3.5-1.5,3.4-4s0-4.6-3.5-4.6c-5.6.1-11.2,0-16.9,0-1.2,0-2.2.1-2.6,1.6-1.4,4.7.2,7,5.2,7Z"/><path class="cls-1" d="M15.61,290.84c-15,.1-15.7-.7-15.6-15.8.1-7.6,3-10.4,10.7-10.4,4,0,8-.1,12,0a8.46,8.46,0,0,1,8.1,5.5c.4.9,1.2,1.9,0,2.6-1,.6-2.7.9-3.2-.2-2.4-5.2-7-3.6-10.9-3.7-13.1-.1-13-.1-12.4,12.9.2,3.6,1.8,5,5.3,5q6-.15,12,0c2.3,0,4.4-.2,5.3-2.7a2.46,2.46,0,0,1,3.6-1.4c1.8,1,.5,2.6-.2,3.8a7.42,7.42,0,0,1-6.8,4.3C20.91,290.84,18.31,290.84,15.61,290.84Z"/><path class="cls-2" d="M290.21,291.24c-15.3.2-15.9-.5-15.9-15.9,0-3,0-6,.1-9,0-1.3.4-2.3,2-2.2s2,.8,2,2.2c0,4.8.2,9.7.1,14.5-.1,3.4,1.2,5.1,4.8,5.5,3.2.3,6.3.3,9.5.3,7.4,0,8.5-1.1,8.7-8.7.1-3.7,0-7.3-.1-11-.1-1.5-.1-2.7,1.8-2.8s2.7.8,2.7,2.7c0,5,.2,10-.1,15-.4,6.9-3,9.3-10,9.4Z"/><path class="cls-1" d="M187.91,290.94c-2.5-.2-4.8.7-5.5-.9-2.7-6.3-8.1-4.4-12.8-4.6-2.3-.1-4.7.2-7-.1a4.94,4.94,0,0,0-5.6,3c-1.3,2.7-3.5,3.2-6.5,2.1,5.4-8.1,10.7-16,16-23.9,2-2.9,3.4-2.3,5.1.3C176.91,274.64,182.21,282.44,187.91,290.94Zm-18.8-20.5c-2.4,3.6-4.6,6.8-6.9,10.3H176C173.61,277.24,171.61,274.14,169.11,270.44Z"/><path class="cls-1" d="M72,290.44c-3.1,1.1-5.2.6-6.5-2.1-1.1-2.5-3.1-3.1-5.6-2.9a90.2,90.2,0,0,1-10.4,0c-3.6-.2-6.9-.1-8.6,3.9-1,2.4-3.3,1.5-6.1,1.7,5.9-8.8,11.4-17.2,17.1-25.4,2-2.8,3.4-.3,4.5,1.3C61.51,274.64,66.61,282.34,72,290.44Zm-24.9-9.7h13.1c-6.6-11.3-6.6-11.3-13.1-.8Z"/><path class="cls-1" d="M111.51,264.94c3.4-.9,5.3.1,6.9,2.7,3.6,5.8,7.6,11.3,11.4,17,7.1-5.8,8.3-17.1,17.6-20.6a15,15,0,0,0,1.3,1.1c-5.5,8-10.9,16.1-16.4,24.1-1.9,2.8-3.4,1.8-4.9-.4C122.31,281,117,273.24,111.51,264.94Z"/></svg>