<svg id="Layer_1" data-name="Layer 1" xmlns="http://www.w3.org/2000/svg" xmlns:xlink="http://www.w3.org/1999/xlink" viewBox="0 0 250 250"><defs><style>.cls-1{fill:none;}.cls-2{clip-path:url(#clip-path);}.cls-3{fill:#ff8f4d;}.cls-4,.cls-5{font-size:22px;font-family:NobodyTalks, Nobody Talks;}.cls-5{fill:#ff904d;}.cls-6{clip-path:url(#clip-path-2);}</style><clipPath id="clip-path"><rect class="cls-1" x="93.3" y="70.16" width="63.75" height="72.75"/></clipPath><clipPath id="clip-path-2"><polygon class="cls-1" points="0 0 0 250 250 250 250 110.46 250 0 0 0"/></clipPath></defs><g class="cls-2"><path class="cls-3" d="M125.15,142.76a4.65,4.65,0,0,1-4.64-4.68V75a4.64,4.64,0,1,1,9.28,0v63.09a4.65,4.65,0,0,1-4.64,4.68"/><path class="cls-3" d="M138.78,131.21a4.65,4.65,0,0,1-4.64-4.68v-40a4.64,4.64,0,1,1,9.28,0v40a4.68,4.68,0,0,1-4.64,4.68"/><path class="cls-3" d="M152.41,118a4.65,4.65,0,0,1-4.64-4.68V99.79a4.64,4.64,0,1,1,9.28,0v13.55a4.67,4.67,0,0,1-4.64,4.63"/><path class="cls-3" d="M111.57,131.21a4.65,4.65,0,0,1-4.64-4.68v-40a4.64,4.64,0,1,1,9.28,0v40a4.75,4.75,0,0,1-4.64,4.68"/><path class="cls-3" d="M97.94,118a4.66,4.66,0,0,1-4.64-4.68V99.74a4.65,4.65,0,1,1,9.29,0v13.55A4.69,4.69,0,0,1,97.94,118"/></g><text class="cls-4" transform="translate(11.79 209.36)">C</text><text class="cls-4" transform="translate(33.37 209.36)">a</text><text class="cls-4" transform="translate(56.16 209.36)">r</text><text class="cls-4" transform="translate(78.27 209.36)">v</text><text class="cls-4" transform="translate(101.08 209.36)">a</text><text class="cls-5" transform="translate(129.33 209.36)">S</text><text class="cls-5" transform="translate(150.91 209.36)">o</text><text class="cls-5" transform="translate(172.49 209.36)">u</text><text class="cls-5" transform="translate(194.07 209.36)">n</text><text class="cls-5" transform="translate(216.72 209.36)">d</text><g class="cls-6"><path d="M73.74,93.75a69,69,0,0,1,6.31-21.51A52.42,52.42,0,0,1,100.11,50q12.94-7.86,29.71-7.86,32.9,0,43.73,35.45c.14.57.6.78,1.38.64s1.16-.43,1.16-.85L173.33,50.8a9.61,9.61,0,0,0-.63-3.28,3.89,3.89,0,0,0-1.91-1.38,70.31,70.31,0,0,0-17.73-5.84,117,117,0,0,0-21.75-1.81q-22.08,0-39.91,8.6a67.12,67.12,0,0,0-27.91,24.2,61.73,61.73,0,0,0-8.9,22.46Z"/><path d="M177.26,137.94a1.82,1.82,0,0,0-.95-.32c-.57,0-.93.14-1.07.42q-6.57,17.63-17.19,26t-27.17,8.39a52.57,52.57,0,0,1-29.18-8.6,60.28,60.28,0,0,1-21-23.77,68.37,68.37,0,0,1-4-9.51H57.29a61.93,61.93,0,0,0,6,12.37,67,67,0,0,0,27.49,24.52q17.61,8.81,40.11,8.81a105.76,105.76,0,0,0,21.44-2,94.49,94.49,0,0,0,20.38-6.9,5.86,5.86,0,0,0,2.12-1.48,8.68,8.68,0,0,0,.64-3.18l2.33-24.2c0-.14-.18-.32-.53-.53"/></g></svg>